<?xml version="1.0" encoding="UTF-8" standalone="no"?>
<!-- Generator: Adobe Illustrator 25.1.0, SVG Export Plug-In . SVG Version: 6.00 Build 0)  -->

<svg
   version="1.1"
   id="Layer_1"
   x="0px"
   y="0px"
   width="557"
   height="285"
   viewBox="0 0 557 285"
   xml:space="preserve"
   sodipodi:docname="farilogo.svg"
   inkscape:version="1.3.2 (1:1.3.2+202311252150+091e20ef0f)"
   xmlns:inkscape="http://www.inkscape.org/namespaces/inkscape"
   xmlns:sodipodi="http://sodipodi.sourceforge.net/DTD/sodipodi-0.dtd"
   xmlns="http://www.w3.org/2000/svg"
   xmlns:svg="http://www.w3.org/2000/svg"><defs
   id="defs47" /><sodipodi:namedview
   id="namedview47"
   pagecolor="#ffffff"
   bordercolor="#000000"
   borderopacity="0.25"
   inkscape:showpageshadow="2"
   inkscape:pageopacity="0.0"
   inkscape:pagecheckerboard="0"
   inkscape:deskcolor="#d1d1d1"
   inkscape:zoom="1.2432572"
   inkscape:cx="322.94203"
   inkscape:cy="190.62829"
   inkscape:window-width="1130"
   inkscape:window-height="736"
   inkscape:window-x="70"
   inkscape:window-y="27"
   inkscape:window-maximized="1"
   inkscape:current-layer="Layer_1" />
<g
   id="g40"
   transform="translate(-95.6931,-47.171475)">
	<g
   id="g4">
		<g
   id="g3">
			<g
   id="g2">
				<g
   id="g1">
					<rect
   x="589.67603"
   y="136.957"
   style="fill:#003f96"
   width="54.277"
   height="194.838"
   id="rect1" />
				</g>
				<path
   id="SVGID_76_"
   style="fill:#003f96"
   d="m 526.491,207.368 0,-0.548 c 0,-7.782 -2.6,-13.593 -7.802,-17.392 -5.202,-3.799 -12.353,-5.709 -21.435,-5.709 h -35.352 v 46.75 h 35.637 c 9.285,0 16.417,-2.093 21.435,-6.258 5.018,-4.185 7.517,-9.793 7.517,-16.843 z M 288.23,255.236 h 43.702 l -21.719,-55.385 z m 281.679,-13.917 c -7.233,9.854 -16.965,17.351 -29.214,22.551 l 46.466,67.921 H 524.807 L 485.554,272.79 h -0.549 -23.101 v 59.002 h -42.301 -11.682 -46.202 l -14.202,-34.783 h -75.154 l -13.917,34.783 H 201.659 L 284.03,136.949 h 53.2 L 407.898,304.14 V 136.948 h 92.139 c 15.035,0 27.734,1.849 38.136,5.567 10.403,3.718 18.834,8.899 25.336,15.583 11.499,11.134 17.249,26.25 17.249,45.369 v 0.549 c 0,15.035 -3.616,27.469 -10.849,37.303 z" />
				<path
   id="SVGID_75_"
   style="fill:#003f96"
   d="M 97.421,331.792 V 136.949 h 155.875 l -20.053,47.319 H 151.425 V 217.1 h 67.941 l -19.058,45.105 h -48.883 v 69.587 z" />
			</g>
		</g>
	</g>
	
	<g
   id="g39">
		
		
		
		
		
		
		
		
		
		
		
		
		
		
		
		
		
		
		
		
		
		
		
		
		
		
		
		
		
		
		
		
		
	</g>
</g>
<linearGradient
   id="SVGID_1_"
   gradientUnits="userSpaceOnUse"
   x1="684.68909"
   y1="121.1163"
   x2="253.8214"
   y2="410.91699"
   gradientTransform="translate(-95.6931,-47.171475)">
	<stop
   offset="0"
   style="stop-color:#00DCBE"
   id="stop40" />
	<stop
   offset="0.2451"
   style="stop-color:#00BAB5"
   id="stop41" />
	<stop
   offset="0.784"
   style="stop-color:#00639F"
   id="stop42" />
	<stop
   offset="1"
   style="stop-color:#003F96"
   id="stop43" />
</linearGradient>

<circle
   style="fill:#00dcbe"
   cx="521.12885"
   cy="36.525524"
   r="34.986"
   id="circle43" />

<linearGradient
   id="SVGID_2_"
   gradientUnits="userSpaceOnUse"
   x1="738.24847"
   y1="127.3503"
   x2="710.81049"
   y2="198.6888">
	<stop
   offset="0"
   style="stop-color:#00DCBE"
   id="stop44" />
	<stop
   offset="0.2451"
   style="stop-color:#00BAB5"
   id="stop45" />
	<stop
   offset="0.784"
   style="stop-color:#00639F"
   id="stop46" />
	<stop
   offset="1"
   style="stop-color:#003F96"
   id="stop47" />
</linearGradient>

</svg>
