<?xml version="1.0" encoding="utf-8"?>
<!-- Generator: Adobe Illustrator 25.1.0, SVG Export Plug-In . SVG Version: 6.00 Build 0)  -->
<svg version="1.1" id="Layer_1" xmlns="http://www.w3.org/2000/svg" xmlns:xlink="http://www.w3.org/1999/xlink" x="0px" y="0px"
	 width="1194.843px" height="429.619px" viewBox="0 0 1194.843 429.619" style="enable-background:new 0 0 1194.843 429.619;"
	 xml:space="preserve">
<g>
	<g>
		<g>
			<g>
				<g>
					<rect x="589.676" y="136.957" style="fill:#FFFFFF;" width="54.277" height="194.838"/>
				</g>
				<path id="SVGID_76_" style="fill:#FFFFFF;" d="M569.909,241.319c7.233-9.834,10.849-22.268,10.849-37.303v-0.549
					c0-19.119-5.75-34.235-17.249-45.369c-6.502-6.684-14.933-11.865-25.336-15.583c-10.402-3.718-23.101-5.567-38.136-5.567
					h-92.139V304.14L337.23,136.949H284.03l-82.371,194.843h56.787l13.917-34.783h75.154l14.202,34.783h46.202h11.682h42.301V272.79
					h23.101h0.549l39.253,59.001h62.354l-46.466-67.921C552.944,258.67,562.676,251.173,569.909,241.319z M288.23,255.236
					l21.983-55.385l21.719,55.385H288.23z M526.491,207.368c0,7.05-2.499,12.658-7.517,16.843
					c-5.018,4.165-12.15,6.258-21.435,6.258h-35.637v-46.75h35.352c9.082,0,16.233,1.91,21.435,5.709s7.802,9.61,7.802,17.392
					V207.368L526.491,207.368z"/>
				<polygon id="SVGID_75_" style="fill:#FFFFFF;" points="219.366,217.1 151.425,217.1 151.425,184.268 233.243,184.268 
					253.296,136.949 97.421,136.949 97.421,331.792 151.425,331.792 151.425,262.205 200.308,262.205 				"/>
			</g>
		</g>
	</g>
	<g>
		<g>
			<g>
				<path style="fill:#FFFFFF;" d="M723.553,140.454l-1.408-3.35h-9.541l-12.466,29.495l-2.755,6.506h10.427l2.537-6.372h13.789
					l2.598,6.372h10.633L723.553,140.454z M713.26,159.025l4.03-10.16l3.993,10.16H713.26z"/>
				<path style="fill:#FFFFFF;" d="M739.964,137.383v35.722h9.965v-35.722H739.964z"/>
			</g>
		</g>
	</g>
	<g>
		<path style="fill:#FFFFFF;" d="M777.407,137.4h25.646v3.722h-21.617v12.747h19.323v3.671h-19.323v15.551h-4.028V137.4z"/>
		<path style="fill:#FFFFFF;" d="M806.981,155.347v-0.102c0-9.84,7.393-18.457,18.253-18.457s18.151,8.515,18.151,18.355
			c0.051,0.051,0.051,0.051,0,0.102c0,9.841-7.392,18.457-18.253,18.457C814.272,173.702,806.981,165.187,806.981,155.347z
			 M839.205,155.347v-0.102c0-8.106-5.915-14.735-14.072-14.735s-13.97,6.526-13.97,14.633v0.102
			c0,8.107,5.914,14.735,14.072,14.735S839.205,163.454,839.205,155.347z"/>
		<path style="fill:#FFFFFF;" d="M850.364,137.4h15.347c4.386,0,7.903,1.326,10.147,3.569c1.733,1.733,2.753,4.232,2.753,7.036
			v0.102c0,5.915-4.078,9.382-9.688,10.401l10.963,14.582h-4.947l-10.35-13.868h-0.102h-10.095v13.868h-4.029V137.4z
			 M865.354,155.602c5.354,0,9.178-2.753,9.178-7.342v-0.102c0-4.385-3.365-7.036-9.127-7.036h-11.013v14.48H865.354z"/>
		<path style="fill:#FFFFFF;" d="M908.891,141.122h-11.982V137.4h28.042v3.722h-11.982v31.968h-4.078V141.122z"/>
		<path style="fill:#FFFFFF;" d="M930.963,137.4h4.028v15.857h20.599V137.4h4.028v35.69h-4.028V157.03h-20.599v16.061h-4.028V137.4z
			"/>
		<path style="fill:#FFFFFF;" d="M968.178,137.4h25.799v3.671h-21.771v12.186h19.476v3.671h-19.476v12.491h22.026v3.671h-26.054
			V137.4z"/>
		<path style="fill:#FFFFFF;" d="M696.301,208.366v-0.102c0-10.095,7.546-18.457,18.05-18.457c6.474,0,10.35,2.295,13.919,5.66
			l-2.753,2.957c-3.008-2.855-6.374-4.895-11.217-4.895c-7.902,0-13.817,6.424-13.817,14.633v0.102
			c0,8.26,5.965,14.735,13.817,14.735c4.895,0,8.107-1.887,11.524-5.15l2.651,2.6c-3.722,3.773-7.802,6.271-14.277,6.271
			C703.898,226.721,696.301,218.614,696.301,208.366z"/>
		<path style="fill:#FFFFFF;" d="M731.884,208.366v-0.102c0-9.84,7.393-18.457,18.253-18.457c10.86,0,18.151,8.515,18.151,18.355
			c0.051,0.051,0.051,0.051,0,0.102c0,9.841-7.392,18.457-18.253,18.457S731.884,218.207,731.884,208.366z M764.108,208.366v-0.102
			c0-8.106-5.914-14.735-14.072-14.735s-13.971,6.526-13.971,14.633v0.102c0,8.107,5.915,14.735,14.072,14.735
			S764.108,216.473,764.108,208.366z"/>
		<path style="fill:#FFFFFF;" d="M775.777,190.419h4.079l13.002,19.476l13.002-19.476h4.078v35.69h-4.028v-28.909l-13.002,19.12
			h-0.205l-13.002-19.069v28.858h-3.926V190.419z"/>
		<path style="fill:#FFFFFF;" d="M819.008,190.419h4.079l13.002,19.476l13.002-19.476h4.078v35.69h-4.027v-28.909l-13.002,19.12
			h-0.205l-13.002-19.069v28.858h-3.926V190.419z"/>
		<path style="fill:#FFFFFF;" d="M860.658,208.366v-0.102c0-9.84,7.393-18.457,18.253-18.457c10.86,0,18.151,8.515,18.151,18.355
			c0.051,0.051,0.051,0.051,0,0.102c0,9.841-7.392,18.457-18.252,18.457C867.95,226.721,860.658,218.207,860.658,208.366z
			 M892.882,208.366v-0.102c0-8.106-5.914-14.735-14.072-14.735s-13.971,6.526-13.971,14.633v0.102
			c0,8.107,5.914,14.735,14.072,14.735S892.882,216.473,892.882,208.366z"/>
		<path style="fill:#FFFFFF;" d="M904.552,190.419h3.773l22.486,28.603v-28.603h3.926v35.69h-3.212l-23.046-29.266v29.266h-3.926
			V190.419z"/>
		<path style="fill:#FFFFFF;" d="M956.499,208.366v-0.102c0-9.789,7.19-18.457,17.896-18.457c6.016,0,9.738,1.734,13.308,4.742
			l-2.601,3.059c-2.753-2.396-5.813-4.079-10.86-4.079c-7.903,0-13.562,6.679-13.562,14.633v0.102
			c0,8.515,5.455,14.837,14.123,14.837c4.079,0,7.851-1.581,10.299-3.569v-8.872h-10.86v-3.62h14.735v14.225
			c-3.314,2.957-8.31,5.455-14.327,5.455C963.434,226.721,956.499,218.563,956.499,208.366z"/>
		<path style="fill:#FFFFFF;" d="M995.448,208.366v-0.102c0-9.84,7.393-18.457,18.253-18.457c10.86,0,18.151,8.515,18.151,18.355
			c0.051,0.051,0.051,0.051,0,0.102c0,9.841-7.392,18.457-18.253,18.457C1002.74,226.721,995.448,218.207,995.448,208.366z
			 M1027.672,208.366v-0.102c0-8.106-5.914-14.735-14.072-14.735s-13.97,6.526-13.97,14.633v0.102
			c0,8.107,5.914,14.735,14.072,14.735S1027.672,216.473,1027.672,208.366z"/>
		<path style="fill:#FFFFFF;" d="M1037.761,208.366v-0.102c0-9.84,7.393-18.457,18.253-18.457c10.86,0,18.151,8.515,18.151,18.355
			c0.051,0.051,0.051,0.051,0,0.102c0,9.841-7.392,18.457-18.252,18.457C1045.053,226.721,1037.761,218.207,1037.761,208.366z
			 M1069.985,208.366v-0.102c0-8.106-5.915-14.735-14.072-14.735c-8.158,0-13.971,6.526-13.971,14.633v0.102
			c0,8.107,5.915,14.735,14.072,14.735C1064.172,223,1069.985,216.473,1069.985,208.366z"/>
		<path style="fill:#FFFFFF;" d="M1081.654,190.419h12.39c11.217,0,18.967,7.699,18.967,17.743v0.102
			c0,10.044-7.75,17.845-18.967,17.845h-12.39V190.419z M1094.044,222.387c9.025,0,14.786-6.118,14.786-14.021v-0.102
			c0-7.903-5.761-14.123-14.786-14.123h-8.361v28.246H1094.044z"/>
		<path style="fill:#FFFFFF;" d="M698.239,243.439h4.029v35.69h-4.029V243.439z"/>
		<path style="fill:#FFFFFF;" d="M712.716,243.439h3.773l22.484,28.603v-28.603h3.926v35.69h-3.212l-23.045-29.266v29.266h-3.926
			V243.439z"/>
		<path style="fill:#FFFFFF;" d="M750.645,273.928l2.499-2.957c3.721,3.365,7.291,5.048,12.236,5.048
			c4.793,0,7.954-2.55,7.954-6.068v-0.102c0-3.314-1.785-5.201-9.279-6.781c-8.209-1.785-11.982-4.436-11.982-10.299v-0.102
			c0-5.609,4.946-9.738,11.726-9.738c5.201,0,8.923,1.478,12.543,4.385l-2.345,3.11c-3.314-2.702-6.628-3.875-10.299-3.875
			c-4.64,0-7.597,2.55-7.597,5.761v0.102c0,3.365,1.835,5.251,9.688,6.934c7.953,1.734,11.624,4.64,11.624,10.095v0.102
			c0,6.118-5.098,10.095-12.185,10.095C759.568,279.639,754.928,277.752,750.645,273.928z"/>
		<path style="fill:#FFFFFF;" d="M794.291,247.16H782.31v-3.722h28.042v3.722H798.37v31.968h-4.078V247.16z"/>
		<path style="fill:#FFFFFF;" d="M818.25,243.439h4.027v35.69h-4.027V243.439z"/>
		<path style="fill:#FFFFFF;" d="M842.16,247.16h-11.982v-3.722h28.042v3.722h-11.982v31.968h-4.078V247.16z"/>
		<path style="fill:#FFFFFF;" d="M865.202,264.19v-20.751h4.029v20.496c0,7.699,4.078,12.033,10.911,12.033
			c6.577,0,10.758-3.977,10.758-11.778v-20.751h4.028v20.445c0,10.401-5.965,15.806-14.888,15.806
			C871.218,279.689,865.202,274.285,865.202,264.19z"/>
		<path style="fill:#FFFFFF;" d="M913.888,247.16h-11.982v-3.722h28.042v3.722h-11.982v31.968h-4.078V247.16z"/>
		<path style="fill:#FFFFFF;" d="M937.49,243.439h25.8v3.671h-21.771v12.186h19.476v3.671h-19.476v12.491h22.026v3.671H937.49
			V243.439z"/>
		<path style="fill:#FFFFFF;" d="M698.137,296.458h16.57c4.079,0,7.292,1.122,9.331,3.161c1.631,1.632,2.447,3.62,2.447,6.068v0.102
			c0,4.028-2.141,6.271-4.691,7.699c4.13,1.581,6.68,3.977,6.68,8.77v0.102c0,6.526-5.303,9.789-13.359,9.789h-16.978V296.458z
			 M713.025,310.887c3.468,0,5.66-1.122,5.66-3.773v-0.102c0-2.346-1.836-3.671-5.15-3.671h-7.75v7.546H713.025z M715.115,325.265
			c3.467,0,5.557-1.224,5.557-3.875v-0.102c0-2.396-1.784-3.875-5.812-3.875h-9.076v7.852H715.115z"/>
		<path style="fill:#FFFFFF;" d="M734.714,296.458h16.316c4.537,0,8.056,1.274,10.401,3.62c1.989,1.988,3.06,4.793,3.06,8.158v0.102
			c0,5.762-3.11,9.382-7.648,11.064l8.719,12.747h-9.178l-7.648-11.421h-0.103h-6.067v11.421h-7.851V296.458z M750.52,313.793
			c3.824,0,6.016-2.039,6.016-5.047v-0.102c0-3.365-2.345-5.099-6.169-5.099h-7.802v10.248H750.52z"/>
		<path style="fill:#FFFFFF;" d="M770.349,316.852v-20.394h7.851v20.19c0,5.812,2.907,8.82,7.699,8.82c4.793,0,7.7-2.906,7.7-8.565
			v-20.445h7.851v20.139c0,10.809-6.067,16.111-15.653,16.111C776.213,332.709,770.349,327.355,770.349,316.852z"/>
		<path style="fill:#FFFFFF;" d="M806.284,326.947l4.64-5.558c3.212,2.651,6.577,4.334,10.656,4.334c3.212,0,5.15-1.274,5.15-3.365
			v-0.102c0-1.989-1.223-3.008-7.189-4.538c-7.189-1.836-11.829-3.824-11.829-10.911v-0.102c0-6.475,5.201-10.758,12.492-10.758
			c5.201,0,9.637,1.632,13.256,4.538l-4.078,5.914c-3.161-2.192-6.272-3.518-9.279-3.518c-3.009,0-4.589,1.377-4.589,3.11v0.102
			c0,2.346,1.53,3.11,7.7,4.691c7.24,1.887,11.318,4.487,11.318,10.707v0.102c0,7.087-5.405,11.064-13.103,11.064
			C816.022,332.658,810.567,330.771,806.284,326.947z"/>
		<path style="fill:#FFFFFF;" d="M838.06,326.947l4.64-5.558c3.212,2.651,6.577,4.334,10.656,4.334c3.211,0,5.149-1.274,5.149-3.365
			v-0.102c0-1.989-1.223-3.008-7.189-4.538c-7.189-1.836-11.829-3.824-11.829-10.911v-0.102c0-6.475,5.201-10.758,12.492-10.758
			c5.201,0,9.637,1.632,13.256,4.538l-4.078,5.914c-3.161-2.192-6.272-3.518-9.279-3.518c-3.009,0-4.589,1.377-4.589,3.11v0.102
			c0,2.346,1.53,3.11,7.699,4.691c7.241,1.887,11.319,4.487,11.319,10.707v0.102c0,7.087-5.405,11.064-13.103,11.064
			C847.799,332.658,842.343,330.771,838.06,326.947z"/>
		<path style="fill:#FFFFFF;" d="M872.62,296.458h26.92v6.985h-19.12v7.24h16.826v6.985H880.42v7.495h19.375v6.985H872.62V296.458z"
			/>
		<path style="fill:#FFFFFF;" d="M906.644,296.458h7.851v28.552h17.794v7.138h-25.646V296.458z"/>
		<path style="fill:#FFFFFF;" d="M935.814,326.947l4.64-5.558c3.212,2.651,6.577,4.334,10.656,4.334c3.212,0,5.15-1.274,5.15-3.365
			v-0.102c0-1.989-1.223-3.008-7.189-4.538c-7.189-1.836-11.829-3.824-11.829-10.911v-0.102c0-6.475,5.201-10.758,12.492-10.758
			c5.201,0,9.637,1.632,13.256,4.538l-4.078,5.914c-3.161-2.192-6.272-3.518-9.279-3.518c-3.009,0-4.589,1.377-4.589,3.11v0.102
			c0,2.346,1.53,3.11,7.7,4.691c7.24,1.887,11.318,4.487,11.318,10.707v0.102c0,7.087-5.405,11.064-13.103,11.064
			C945.552,332.658,940.097,330.771,935.814,326.947z"/>
	</g>
</g>
<linearGradient id="SVGID_1_" gradientUnits="userSpaceOnUse" x1="684.6891" y1="121.1163" x2="253.8214" y2="410.917">
	<stop  offset="0" style="stop-color:#00DCBE"/>
	<stop  offset="0.1571" style="stop-color:#22E1C7"/>
	<stop  offset="0.5057" style="stop-color:#7AEDDD"/>
	<stop  offset="1" style="stop-color:#FFFFFF"/>
</linearGradient>
<path style="fill:url(#SVGID_1_);" d="M626.118,136.957L589.676,227.3v-90.343H626.118z M563.507,158.098
	c-6.493-6.691-14.925-11.857-25.337-15.578c-10.392-3.721-23.1-5.562-38.124-5.562h-14.985l-77.159,52.792v114.393l-37.511-88.719
	L327.753,244.6l4.177,10.63h-19.715l-110.018,75.299l-0.535,1.267h56.791l13.916-34.779h75.14l14.213,34.779h100.181v-59.008h23.654
	l39.253,59.008h22.724l14.688-36.442l-21.536-31.473c12.253-5.206,21.992-12.708,29.217-22.566
	c7.245-9.838,10.867-22.269,10.867-37.293v-0.554C580.768,184.346,575.008,169.242,563.507,158.098z M526.491,207.367
	c0,7.047-2.494,12.668-7.522,16.845c-5.008,4.157-12.154,6.255-21.437,6.255h-35.63v-46.755h35.353
	c9.086,0,16.232,1.92,21.438,5.721c5.206,3.801,7.799,9.6,7.799,17.38V207.367z"/>
<circle style="fill:#00DCBE;" cx="616.822" cy="83.697" r="34.986"/>
<circle style="fill:#00DCBE;" cx="744.952" cy="127.586" r="6.419"/>
<linearGradient id="SVGID_2_" gradientUnits="userSpaceOnUse" x1="738.2485" y1="127.3503" x2="710.8105" y2="198.6888">
	<stop  offset="0" style="stop-color:#00DCBE"/>
	<stop  offset="0.1571" style="stop-color:#22E1C7"/>
	<stop  offset="0.5057" style="stop-color:#7AEDDD"/>
	<stop  offset="1" style="stop-color:#FFFFFF"/>
</linearGradient>
<path style="fill:url(#SVGID_2_);" d="M723.553,140.454l-23.415,26.145l-2.755,6.506h10.427l2.537-6.372h13.789l2.598,6.372h10.633
	L723.553,140.454z M713.26,159.025l4.03-10.16l3.993,10.16H713.26z M749.054,137.377l-5.136,35.728h-3.948v-35.728H749.054z"/>
</svg>
